<svg width="14" height="12" viewBox="0 0 14 12" fill="none" xmlns="http://www.w3.org/2000/svg">
<path d="M13.875 5.99995C13.875 5.68353 13.6399 5.42204 13.3348 5.38065L13.25 5.37495L2.26333 5.37545L6.23249 1.42251C6.47709 1.17895 6.47794 0.783227 6.23439 0.538624C6.01298 0.316257 5.66581 0.295338 5.42074 0.476356L5.35051 0.53672L0.308845 5.55672C0.276603 5.58882 0.248597 5.62357 0.22483 5.66026C0.218116 5.67131 0.211283 5.6826 0.204803 5.69413C0.198845 5.70401 0.19346 5.71427 0.18838 5.72464C0.181324 5.73973 0.174431 5.75532 0.168172 5.77123C0.163086 5.7835 0.158839 5.79543 0.154966 5.80745C0.150362 5.82237 0.145887 5.83826 0.142039 5.85439C0.139178 5.86565 0.136912 5.87649 0.134936 5.88738C0.132156 5.90357 0.129791 5.92032 0.128103 5.93728C0.126645 5.95021 0.125768 5.96302 0.125283 5.97585C0.125158 5.98363 0.125 5.99177 0.125 5.99995L0.125314 6.02416C0.125793 6.03642 0.12663 6.04868 0.127828 6.06091L0.125 5.99995C0.125 6.03939 0.128654 6.07797 0.13564 6.11539C0.13726 6.12432 0.139191 6.1335 0.141329 6.14263C0.145768 6.16145 0.150899 6.17956 0.156807 6.19733C0.159707 6.20615 0.163085 6.21558 0.166695 6.22494C0.173999 6.24375 0.181937 6.26167 0.19067 6.27914C0.194728 6.28735 0.199271 6.29594 0.20403 6.30445C0.21184 6.31834 0.219886 6.33153 0.228395 6.34439C0.234397 6.35349 0.241045 6.36296 0.247986 6.37228L0.253395 6.37948C0.270233 6.40148 0.288501 6.42233 0.308058 6.44189L0.308808 6.44247L5.35047 11.4633C5.59506 11.7069 5.99078 11.7061 6.23436 11.4615C6.45579 11.2391 6.47524 10.8919 6.29319 10.6476L6.23253 10.5776L2.265 6.62545L13.25 6.62495C13.5952 6.62495 13.875 6.34512 13.875 5.99995Z" fill="#212121"/>
</svg>
