<svg width="50" height="50" viewBox="0 0 50 50" fill="none" xmlns="http://www.w3.org/2000/svg">
<path d="M24.9998 46.3542C23.2915 46.3542 21.5831 45.8126 20.1665 44.7501L9.31231 36.6251C7.29148 35.1042 6.08317 32.6876 6.08317 30.1667V3.66672H43.9164V30.1667C43.9164 32.6876 42.7081 35.1042 40.6873 36.6251L29.8332 44.7501C28.4165 45.8126 26.7081 46.3542 24.9998 46.3542ZM9.20817 6.7709V30.1459C9.20817 31.6876 9.95813 33.1667 11.1873 34.1042L22.0414 42.2292C23.7914 43.5417 26.229 43.5417 27.979 42.2292L38.8332 34.1042C40.0623 33.1667 40.8123 31.6876 40.8123 30.1459V6.7709H9.20817Z" fill="url(#paint0_linear_402_37)"/>
<path d="M45.8333 6.77084H4.16667C3.31251 6.77084 2.60417 6.06251 2.60417 5.20834C2.60417 4.35418 3.31251 3.64584 4.16667 3.64584H45.8333C46.6875 3.64584 47.3958 4.35418 47.3958 5.20834C47.3958 6.06251 46.6875 6.77084 45.8333 6.77084Z" fill="url(#paint1_linear_402_37)"/>
<path d="M33.3333 18.2292H16.6667C15.8125 18.2292 15.1042 17.5209 15.1042 16.6667C15.1042 15.8126 15.8125 15.1042 16.6667 15.1042H33.3333C34.1875 15.1042 34.8958 15.8126 34.8958 16.6667C34.8958 17.5209 34.1875 18.2292 33.3333 18.2292Z" fill="url(#paint2_linear_402_37)"/>
<path d="M33.3333 28.6458H16.6667C15.8125 28.6458 15.1042 27.9375 15.1042 27.0833C15.1042 26.2291 15.8125 25.5208 16.6667 25.5208H33.3333C34.1875 25.5208 34.8958 26.2291 34.8958 27.0833C34.8958 27.9375 34.1875 28.6458 33.3333 28.6458Z" fill="url(#paint3_linear_402_37)"/>
<defs>
<linearGradient id="paint0_linear_402_37" x1="24.9998" y1="3.66672" x2="24.9998" y2="46.3542" gradientUnits="userSpaceOnUse">
<stop offset="0.296875" stop-color="#A8C43D"/>
<stop offset="0.520833" stop-color="#548E4E"/>
<stop offset="0.6875" stop-color="#548E4E"/>
<stop offset="0.869792" stop-color="#A8C43D"/>
</linearGradient>
<linearGradient id="paint1_linear_402_37" x1="25" y1="3.64584" x2="25" y2="6.77084" gradientUnits="userSpaceOnUse">
<stop offset="0.296875" stop-color="#A8C43D"/>
<stop offset="0.520833" stop-color="#548E4E"/>
<stop offset="0.6875" stop-color="#548E4E"/>
<stop offset="0.869792" stop-color="#A8C43D"/>
</linearGradient>
<linearGradient id="paint2_linear_402_37" x1="25" y1="15.1042" x2="25" y2="18.2292" gradientUnits="userSpaceOnUse">
<stop offset="0.296875" stop-color="#A8C43D"/>
<stop offset="0.520833" stop-color="#548E4E"/>
<stop offset="0.6875" stop-color="#548E4E"/>
<stop offset="0.869792" stop-color="#A8C43D"/>
</linearGradient>
<linearGradient id="paint3_linear_402_37" x1="25" y1="25.5208" x2="25" y2="28.6458" gradientUnits="userSpaceOnUse">
<stop offset="0.296875" stop-color="#A8C43D"/>
<stop offset="0.520833" stop-color="#548E4E"/>
<stop offset="0.6875" stop-color="#548E4E"/>
<stop offset="0.869792" stop-color="#A8C43D"/>
</linearGradient>
</defs>
</svg>
